<svg xmlns="http://www.w3.org/2000/svg" width="404" height="319" viewBox="0 0 404 319">
  <defs>
    <style>
      .cls-1 {
        fill: #150131;
        fill-rule: evenodd;
      }
    </style>
  </defs>
  <path id="Shape_15_copy_22" data-name="Shape 15 copy 22" class="cls-1" d="M871.01,15556v319h404v-319h-404Zm393.49,82.8c-0.58,21.8-1.26,43.5-1.88,65.2-0.63,21.8-1.26,31.5-1.89,53.2-0.31,10.9-.62,21.8-0.94,32.6s0.29,16.2-1.78,26.8c-4.39,22.6-26.8,36.3-46.44,36.3-21.01,0-23.57-.2-44.57-0.9-27.2-.9-85.95,16.1-94,16-9.99,0-34.82-13.2-75-18-41.649-5-90.584-1.2-103-17s-10.668-91.5-12.137-110.9a533.592,533.592,0,0,1,5.507-124.7c-3.494-3.6-4.871-9.7-1.99-14.1a36.075,36.075,0,0,1,20.29-15.1c16.417-4.8,34.322-.4,50.829,1.5,20.509,2.3,41.072,4.2,61.671,5.5a1216.073,1216.073,0,0,0,123.74,1.6c20.65-.7,41.23-2.2,61.83-3.8,18.82-1.4,38.25.9,50.17,17.8C1264.46,15604.4,1264.93,15622.7,1264.5,15638.8Z" transform="translate(-871 -15556)"/>
</svg>
